<svg xmlns="http://www.w3.org/2000/svg" viewBox="0 0 72 72" width="72" height="72">
  <rect width="72" height="72" rx="16" fill="#E8630A"/>
  <path d="M36 10 C26 18 14 27 16 44 C18 57 27 66 36 70 C45 66 54 57 56 44 C58 27 46 18 36 10Z" fill="#F5A623"/>
  <path d="M36 26 C32 32 27 39 29 47 C31 53 34 58 36 61 C38 58 41 53 43 47 C45 39 40 32 36 26Z" fill="#FDE68A"/>
  <path d="M23 47 L27 59 L32 50 L36 57 L40 50 L45 59 L49 47" stroke="white" stroke-width="3.5" stroke-linecap="round" stroke-linejoin="round" fill="none" opacity="0.95"/>
</svg>
